<svg xmlns="http://www.w3.org/2000/svg"  viewBox="0 0 48 48" width="96px" height="96px"><path fill="#10153055" d="M34,40H22c-6.6,0-12-5.4-12-12v0c0-6.6,5.4-12,12-12h12c6.6,0,12,5.4,12,12v0C46,34.6,40.6,40,34,40z"/><line x1="24" x2="24" y1="11.6" y2="5.6" fill="none" stroke="#101530" stroke-linecap="round" stroke-linejoin="round" stroke-miterlimit="10" stroke-width="3"/><path fill="none" stroke="#101530" stroke-linecap="round" stroke-linejoin="round" stroke-miterlimit="10" stroke-width="3" d="M41.6,28.6c1.1-0.4,1.9-1.5,1.9-2.7v-3.8c0-1.3-0.8-2.4-2-2.7"/><path fill="none" stroke="#101530" stroke-linecap="round" stroke-linejoin="round" stroke-miterlimit="10" stroke-width="3" d="M6.5,28.7c-1.2-0.4-2.1-1.5-2.1-2.8v-3.8c0-1.3,0.8-2.3,1.9-2.7"/><path fill="none" stroke="#101530" stroke-linecap="round" stroke-linejoin="round" stroke-miterlimit="10" stroke-width="3" d="M25.4,36.4H18c-6.8,0-12.4-5.6-12.4-12.4v0c0-5,2.9-9.3,7.1-11.2"/><path fill="none" stroke="#101530" stroke-linecap="round" stroke-linejoin="round" stroke-miterlimit="10" stroke-width="3" d="M18.9,11.6H30c6.8,0,12.4,5.6,12.4,12.4v0c0,6.8-5.6,12.4-12.4,12.4"/><path fill="none" stroke="#101530" stroke-linecap="round" stroke-linejoin="round" stroke-miterlimit="10" stroke-width="3" d="M34.2,19c1.4,1.2,2.4,3,2.4,5v0c0,3.6-2.9,6.5-6.5,6.5H17.9c-3.6,0-6.5-2.9-6.5-6.5v0c0-3.6,2.9-6.5,6.5-6.5	h12.1"/><line x1="18.9" x2="18.9" y1="23.1" y2="24.8" fill="none" stroke="#101530" stroke-linecap="round" stroke-linejoin="round" stroke-miterlimit="10" stroke-width="3"/><line x1="28.9" x2="28.9" y1="23.1" y2="24.8" fill="none" stroke="#101530" stroke-linecap="round" stroke-linejoin="round" stroke-miterlimit="10" stroke-width="3"/></svg>