<svg width="22" height="23" viewBox="0 0 22 23" fill="none" xmlns="http://www.w3.org/2000/svg">
<path d="M12.3766 11.7107L4.26413 13.0635C4.17086 13.0791 4.08334 13.1189 4.01035 13.1791C3.93737 13.2392 3.88151 13.3175 3.84838 13.406L1.05124 20.8992C0.784123 21.5885 1.50468 22.2455 2.166 21.9149L21.5532 12.2212C21.6875 12.1542 21.8004 12.0511 21.8794 11.9234C21.9583 11.7957 22.0001 11.6486 22.0001 11.4985C22.0001 11.3484 21.9583 11.2013 21.8794 11.0737C21.8004 10.946 21.6875 10.8429 21.5532 10.7758L2.166 1.08221C1.50468 0.751552 0.784123 1.40964 1.05124 2.09789L3.84946 9.59105C3.88243 9.67981 3.93823 9.75831 4.01122 9.81864C4.08421 9.87896 4.17182 9.91897 4.26521 9.93463L12.3777 11.2864C12.4276 11.2951 12.4728 11.3212 12.5054 11.36C12.538 11.3988 12.5559 11.4478 12.5559 11.4985C12.5559 11.5492 12.538 11.5983 12.5054 11.6371C12.4728 11.6759 12.4276 11.702 12.3777 11.7107H12.3766Z" fill="#63737C"/>
</svg>
